<?xml version="1.0" standalone="no"?>
<!DOCTYPE svg PUBLIC "-//W3C//DTD SVG 20010904//EN"
 "http://www.w3.org/TR/2001/REC-SVG-20010904/DTD/svg10.dtd">
<svg version="1.0" xmlns="http://www.w3.org/2000/svg"
 width="512.000000pt" height="512.000000pt" viewBox="0 0 512.000000 512.000000"
 preserveAspectRatio="xMidYMid meet">

<g transform="translate(0.000000,512.000000) scale(0.100000,-0.100000)"
fill="#000000" stroke="none">
<path d="M1127 3999 c-93 -14 -171 -80 -220 -186 l-22 -48 0 -1205 0 -1205 23
-49 c69 -151 205 -219 351 -175 55 16 135 88 166 148 40 81 45 141 45 588 l0
423 1070 0 1069 0 3 -472 3 -473 28 -57 c73 -149 238 -212 375 -141 68 35 126
102 152 176 20 55 20 85 20 1237 0 1152 0 1182 -20 1237 -26 74 -84 141 -152
177 -140 71 -309 4 -382 -153 -20 -45 -21 -60 -24 -518 l-3 -473 -1069 0
-1070 0 0 423 c0 446 -5 507 -45 587 -26 51 -101 125 -143 141 -48 18 -106 25
-155 18z"/>
<path d="M420 3544 c-45 -20 -86 -59 -113 -109 l-22 -40 0 -835 0 -835 22 -40
c46 -86 114 -125 215 -125 105 1 187 55 219 147 20 56 20 1650 0 1706 -18 52
-67 106 -116 128 -50 23 -156 24 -205 3z"/>
<path d="M4464 3541 c-57 -26 -110 -92 -123 -153 -15 -68 -15 -1588 0 -1656
13 -61 66 -127 123 -153 51 -23 153 -25 204 -3 49 20 90 60 113 109 18 38 19
83 19 875 0 791 -1 837 -19 876 -22 48 -82 101 -131 114 -55 16 -141 11 -186
-9z"/>
<path d="M47 2989 c-43 -25 -47 -59 -47 -429 0 -280 3 -357 14 -385 35 -84
129 -69 156 26 13 44 13 674 0 718 -19 68 -74 99 -123 70z"/>
<path d="M4980 2972 c-19 -19 -30 -44 -35 -73 -3 -24 -5 -193 -3 -374 3 -299
5 -334 21 -358 40 -61 108 -60 139 3 16 31 18 72 18 388 0 281 -3 359 -14 387
-26 60 -80 72 -126 27z"/>
</g>
</svg>
